<svg width="200" height="50" viewBox="0 0 200 50" fill="none" xmlns="http://www.w3.org/2000/svg">
  <path d="M20.5 10C14.1487 10 9 15.1487 9 21.5C9 27.8513 14.1487 33 20.5 33C26.8513 33 32 27.8513 32 21.5C32 15.1487 26.8513 10 20.5 10ZM20.5 31C15.2617 31 11 26.7383 11 21.5C11 16.2617 15.2617 12 20.5 12C25.7383 12 30 16.2617 30 21.5C30 26.7383 25.7383 31 20.5 31Z" fill="#FF36A2"/>
  <path d="M20.5 14C16.3643 14 13 17.3643 13 21.5C13 25.6357 16.3643 29 20.5 29C24.6357 29 28 25.6357 28 21.5C28 17.3643 24.6357 14 20.5 14ZM20.5 27C17.4683 27 15 24.5317 15 21.5C15 18.4683 17.4683 16 20.5 16C23.5317 16 26 18.4683 26 21.5C26 24.5317 23.5317 27 20.5 27Z" fill="#9500FF"/>
  <path d="M46.008 33V10.6H52.344C54.36 10.6 56.008 11.016 57.288 11.848C58.584 12.664 59.528 13.784 60.12 15.208C60.728 16.616 61.032 18.208 61.032 19.984V23.64C61.032 25.416 60.728 27.008 60.12 28.416C59.528 29.824 58.584 30.936 57.288 31.752C56.008 32.584 54.36 33 52.344 33H46.008ZM49.32 30.12H52.2C53.448 30.12 54.464 29.872 55.248 29.376C56.032 28.864 56.6 28.152 56.952 27.24C57.32 26.328 57.504 25.28 57.504 24.096V19.504C57.504 18.32 57.32 17.272 56.952 16.36C56.6 15.448 56.032 14.744 55.248 14.248C54.464 13.736 53.448 13.48 52.2 13.48H49.32V30.12Z" fill="#FF36A2"/>
  <path d="M64.6206 33V10.6H67.9046V33H64.6206Z" fill="#FF36A2"/>
  <path d="M71.9413 33V10.6H75.6973L81.8653 27.048H82.0093V10.6H85.2933V33H81.5853L75.3933 16.552H75.2493V33H71.9413Z" fill="#FF36A2"/>
  <path d="M89.7616 33V10.6H101.618V13.48H93.0736V20.392H100.586V23.272H93.0736V30.12H101.618V33H89.7616Z" fill="#FF36A2"/>
  <path d="M111.412 33.336C109.732 33.336 108.356 32.976 107.284 32.256C106.228 31.52 105.444 30.496 104.932 29.184C104.436 27.856 104.188 26.304 104.188 24.528V19.072C104.188 17.296 104.436 15.752 104.932 14.44C105.444 13.112 106.228 12.088 107.284 11.368C108.356 10.632 109.732 10.264 111.412 10.264C113.108 10.264 114.484 10.632 115.54 11.368C116.596 12.088 117.372 13.112 117.868 14.44C118.38 15.752 118.636 17.296 118.636 19.072V24.528C118.636 26.304 118.38 27.856 117.868 29.184C117.372 30.496 116.596 31.52 115.54 32.256C114.484 32.976 113.108 33.336 111.412 33.336ZM111.412 30.456C112.612 30.456 113.5 30.112 114.076 29.424C114.652 28.72 114.94 27.752 114.94 26.52V17.08C114.94 15.848 114.652 14.888 114.076 14.2C113.5 13.496 112.612 13.144 111.412 13.144C110.212 13.144 109.324 13.496 108.748 14.2C108.172 14.888 107.884 15.848 107.884 17.08V26.52C107.884 27.752 108.172 28.72 108.748 29.424C109.324 30.112 110.212 30.456 111.412 30.456Z" fill="#FF36A2"/>
  <path d="M128.778 33.336C127.05 33.336 125.642 32.976 124.554 32.256C123.466 31.52 122.658 30.496 122.13 29.184C121.618 27.856 121.362 26.304 121.362 24.528V19.048C121.362 17.272 121.626 15.728 122.154 14.416C122.682 13.088 123.498 12.064 124.602 11.344C125.706 10.624 127.082 10.264 128.73 10.264C130.458 10.264 131.874 10.656 132.978 11.44C134.098 12.224 134.922 13.296 135.45 14.656C135.994 16.016 136.266 17.6 136.266 19.408V21.208H125.106V25.608C125.106 26.84 125.394 27.8 125.97 28.488C126.562 29.16 127.442 29.496 128.61 29.496C129.378 29.496 130.034 29.352 130.578 29.064C131.138 28.76 131.562 28.328 131.85 27.768C132.154 27.208 132.306 26.544 132.306 25.776V24.648H136.05V25.608C136.05 27.032 135.762 28.28 135.186 29.352C134.61 30.408 133.778 31.224 132.69 31.8C131.618 32.824 130.33 33.336 128.778 33.336ZM132.546 18.256V17.08C132.546 15.848 132.258 14.888 131.682 14.2C131.106 13.496 130.074 13.144 128.586 13.144C127.13 13.144 126.07 13.496 125.406 14.2C124.758 14.888 124.434 15.848 124.434 17.08V18.256H132.546Z" fill="#FF36A2"/>
  <path d="M140.121 33V10.6H144.905C146.697 10.6 148.169 10.944 149.321 11.632C150.473 12.304 151.321 13.248 151.865 14.464C152.409 15.664 152.681 17.072 152.681 18.688C152.681 20.272 152.409 21.656 151.865 22.84C151.321 24.024 150.481 24.944 149.345 25.6C148.209 26.256 146.769 26.584 145.025 26.584H143.433V33H140.121ZM143.433 23.704H144.737C146.305 23.704 147.409 23.328 148.049 22.576C148.689 21.824 149.009 20.56 149.009 18.784C149.009 17.008 148.657 15.728 147.953 14.944C147.265 14.16 146.129 13.768 144.545 13.768H143.433V23.704Z" fill="#FF36A2"/>
  <path d="M156.211 33V10.6H168.067V13.48H159.523V20.392H167.035V23.272H159.523V30.12H168.067V33H156.211Z" fill="#FF36A2"/>
  <path d="M171.747 33V10.6H176.531C178.323 10.6 179.795 10.944 180.947 11.632C182.099 12.304 182.947 13.248 183.491 14.464C184.035 15.664 184.307 17.072 184.307 18.688C184.307 20.272 184.035 21.656 183.491 22.84C182.947 24.024 182.107 24.944 180.971 25.6C179.835 26.256 178.395 26.584 176.651 26.584H175.059V33H171.747ZM175.059 23.704H176.363C177.931 23.704 179.035 23.328 179.675 22.576C180.315 21.824 180.635 20.56 180.635 18.784C180.635 17.008 180.283 15.728 179.579 14.944C178.891 14.16 177.755 13.768 176.171 13.768H175.059V23.704Z" fill="#FF36A2"/>
  <path d="M191.273 33V13.48H186.201V10.6H199.649V13.48H194.601V33H191.273Z" fill="#FF36A2"/>
  <circle cx="173" cy="19" r="5" fill="#36FBEE"/>
</svg> 