<svg width="300" height="600" viewBox="0 0 300 600" fill="none" xmlns="http://www.w3.org/2000/svg">
  <!-- Phone Frame -->
  <rect width="300" height="600" rx="40" fill="#111111"/>
  <rect x="10" y="10" width="280" height="580" rx="30" fill="#000000"/>
  
  <!-- Status Bar -->
  <rect x="15" y="15" width="270" height="30" rx="10" fill="#111111"/>
  <text x="150" y="35" font-family="Arial" font-size="16" fill="white" text-anchor="middle">6:14</text>
  
  <!-- App Header -->
  <text x="150" y="70" font-family="Arial" font-size="20" font-weight="bold" fill="white" text-anchor="middle">Electric Dreamz 2023</text>
  <circle cx="40" y="70" r="20" fill="#111111"/>
  <text x="40" y="75" font-family="Arial" font-size="20" fill="white" text-anchor="middle">✕</text>
  
  <!-- Day Selection -->
  <rect x="30" y="90" width="70" height="40" rx="20" fill="#FF36A2"/>
  <text x="65" y="115" font-family="Arial" font-size="16" fill="white" text-anchor="middle">Day 1</text>
  
  <rect x="110" y="90" width="70" height="40" rx="20" fill="#333333"/>
  <text x="145" y="115" font-family="Arial" font-size="16" fill="white" text-anchor="middle">Day 2</text>
  
  <rect x="190" y="90" width="70" height="40" rx="20" fill="#333333"/>
  <text x="225" y="115" font-family="Arial" font-size="16" fill="white" text-anchor="middle">Day 3</text>
  
  <!-- Schedule -->
  <text x="30" y="160" font-family="Arial" font-size="18" fill="white" font-weight="bold">14:00</text>
  <rect x="80" y="140" width="200" height="70" rx="10" fill="#222222"/>
  <text x="180" y="165" font-family="Arial" font-size="18" fill="white" font-weight="bold" text-anchor="middle">Bass Nectar</text>
  <text x="180" y="185" font-family="Arial" font-size="14" fill="#BBBBBB" text-anchor="middle">Main Stage</text>
  <text x="180" y="205" font-family="Arial" font-size="14" fill="#FF36A2" text-anchor="middle">Electronic</text>
  
  <text x="30" y="245" font-family="Arial" font-size="18" fill="white" font-weight="bold">16:00</text>
  <rect x="80" y="225" width="200" height="70" rx="10" fill="#222222"/>
  <text x="180" y="250" font-family="Arial" font-size="18" fill="white" font-weight="bold" text-anchor="middle">Armin van Buuren</text>
  <text x="180" y="270" font-family="Arial" font-size="14" fill="#BBBBBB" text-anchor="middle">Main Stage</text>
  <text x="180" y="290" font-family="Arial" font-size="14" fill="#FF36A2" text-anchor="middle">Trance</text>
  
  <text x="30" y="330" font-family="Arial" font-size="18" fill="white" font-weight="bold">18:00</text>
  <rect x="80" y="310" width="200" height="70" rx="10" fill="#222222"/>
  <text x="180" y="335" font-family="Arial" font-size="18" fill="white" font-weight="bold" text-anchor="middle">Deadmau5</text>
  <text x="180" y="355" font-family="Arial" font-size="14" fill="#BBBBBB" text-anchor="middle">Cosmic Stage</text>
  <text x="180" y="375" font-family="Arial" font-size="14" fill="#FF36A2" text-anchor="middle">Progressive House</text>
  
  <!-- Voting Dialog -->
  <rect x="20" y="400" width="260" height="180" rx="15" fill="#3A0066"/>
  <text x="150" y="430" font-family="Arial" font-size="20" fill="white" font-weight="bold" text-anchor="middle">Choose Your Vibe</text>
  <text x="150" y="455" font-family="Arial" font-size="14" fill="#BBBBBB" text-anchor="middle">14:00 - 15:30</text>
  
  <rect x="30" y="470" width="240" height="60" rx="10" fill="#6C00FF"/>
  <circle cx="50" y="500" r="15" fill="#FF36A2"/>
  <text x="50" y="505" font-family="Arial" font-size="14" fill="white" text-anchor="middle">✓</text>
  <text x="150" y="490" font-family="Arial" font-size="16" fill="white" font-weight="bold" text-anchor="middle">Bass Nectar</text>
  <text x="150" y="510" font-family="Arial" font-size="14" fill="#BBBBBB" text-anchor="middle">Electronic • 2 friends going</text>
  
  <rect x="30" y="540" width="240" height="60" rx="10" fill="#333333"/>
  <circle cx="50" y="570" r="15" stroke="#BBBBBB" stroke-width="2" fill="none"/>
  <text x="150" y="560" font-family="Arial" font-size="16" fill="white" font-weight="bold" text-anchor="middle">Tiesto</text>
  <text x="150" y="580" font-family="Arial" font-size="14" fill="#BBBBBB" text-anchor="middle">Trance • 1 friend going</text>
</svg> 